# xmcd
#
# Track frame offsets:
#	150
#	15398
#	29758
#	44136
#	55655
#	74158
#	96496
#	113835
#	130973
#	151018
#	169754
#	189772
#	209061
#	228579
#	247554
#
# Disc length: 3540 seconds
#
# Revision: 0
# Processed by: cddbd v1.5.2PL0 Copyright (c) Steve Scherf et al.
# Submitted via: EasyCDDAExtractor 15.1.0.1
#
DISCID=d00dd20f
DTITLE=Scott Ellison - Walkin Through the Fire
DYEAR=2011
DGENRE=Blues Rock
TTITLE0=Hits Like Dynamite
TTITLE1=Shakin With the Blues
TTITLE2=Aint Just Leavin Town
TTITLE3=No Way to Live
TTITLE4=Big Big Love
TTITLE5=You Talk Too Much
TTITLE6=Driftin Man
TTITLE7=Sweet Thunder
TTITLE8=Dont Wanna Need Ya
TTITLE9=Walkin Through the Fire
TTITLE10=Troubled Times
TTITLE11=The Name of Your Game
TTITLE12=All Things
TTITLE13=Turn Out the Lights
TTITLE14=The Man Who Shot Mustang Sally
EXTD=
EXTT0=
EXTT1=
EXTT2=
EXTT3=
EXTT4=
EXTT5=
EXTT6=
EXTT7=
EXTT8=
EXTT9=
EXTT10=
EXTT11=
EXTT12=
EXTT13=
EXTT14=
PLAYORDER=
